<svg xmlns="http://www.w3.org/2000/svg" width="146.359" height="153.607"><path d="M141.069 117.162V22.928H5.29v94.234h9.11v5.29h14.465a47.5 47.5 0 1 1 87.648 0h15.445v-5.29z" fill="#280071"/><g fill="#181818"><path d="M146.359 122.452h-14.401v-5.29h9.111V22.928H5.29v94.234h9.11v5.29H0V17.638h146.359v104.814z"/><path d="M146.359 22.923H0V0h146.359zM5.29 17.633H141.07V5.29H5.29z"/><path d="M9.405 8.817h5.29v5.29h-5.29zM19.985 8.817h5.29v5.29h-5.29zM30.566 8.817h5.29v5.29h-5.29z"/><g><path d="M73.179 153.607a49.16 49.16 0 1 1 49.167-49.17 49.222 49.222 0 0 1-49.167 49.17zm0-93.03a43.87 43.87 0 1 0 43.877 43.86 43.917 43.917 0 0 0-43.877-43.86z"/><path d="M70.534 45.095h5.29v12.837h-5.29z"/><path d="M78.99 53.551H67.367a8.457 8.457 0 1 1 0-16.913H78.99a8.457 8.457 0 1 1 0 16.913zM67.367 41.928a3.166 3.166 0 1 0 0 6.332H78.99a3.166 3.166 0 1 0 0-6.332zM114.81 73.139l-3.75-3.73 2.723-2.738a.436.436 0 0 0 .152-.324.444.444 0 0 0-.147-.33l-2.187-2.186a.59.59 0 0 0-.652.002l-2.727 2.732-3.743-3.739 2.73-2.734a5.734 5.734 0 0 1 4.078-1.683 5.655 5.655 0 0 1 4.074 1.702l2.166 2.166a5.716 5.716 0 0 1-.003 8.133zM31.566 73.146l-2.738-2.737a5.726 5.726 0 0 1-.005-8.128l2.195-2.192a5.657 5.657 0 0 1 4.055-1.68 5.725 5.725 0 0 1 4.069 1.676l2.744 2.738-3.74 3.745-2.74-2.737a.47.47 0 0 0-.637-.012l-2.202 2.199a.457.457 0 0 0-.144.34.439.439 0 0 0 .149.312l2.733 2.733z"/><g><path d="M51.503 72.204l4.577-2.65 2.72 4.698-4.578 2.65zM38.286 87.364l2.635-4.586 4.702 2.702-2.635 4.586zM34.416 101.795h5.428v5.29h-5.428zM38.28 121.536l4.7-2.717 2.648 4.58-4.7 2.718zM51.503 136.69l2.717-4.703 4.582 2.647-2.717 4.703zM70.534 137.777h5.29v5.434h-5.29zM87.556 134.627l4.588-2.633 2.698 4.703-4.588 2.633zM100.715 123.4l2.639-4.586 4.72 2.717-2.64 4.586z"/><g><path d="M73.179 112.906a8.462 8.462 0 1 1 8.453-8.468 8.473 8.473 0 0 1-8.453 8.468zm0-11.634a3.172 3.172 0 1 0 3.163 3.166 3.17 3.17 0 0 0-3.163-3.166z"/><path d="M78.987 101.795h14.749v5.29H78.987z"/></g><path d="M111.88 104.44h-5.29A33.444 33.444 0 0 0 73.18 71.042v-5.29a38.739 38.739 0 0 1 38.701 38.688z"/></g></g></g></svg>