<svg xmlns="http://www.w3.org/2000/svg" width="170" height="126.172"><path d="M50.8 13.281a3.32 3.32 0 1 0 3.321 3.32 3.322 3.322 0 0 0-3.32-3.32z" fill="#272727"/><path d="M166.68 0H3.32A3.32 3.32 0 0 0 0 3.32v119.532a3.32 3.32 0 0 0 3.32 3.32h163.36a3.32 3.32 0 0 0 3.32-3.32V3.32A3.32 3.32 0 0 0 166.68 0zm-3.32 119.531H6.64V6.641h156.72z" fill="#272727"/><path d="M152.402 83.008a3.32 3.32 0 0 0-3.32 3.32v19.922H132.48a3.32 3.32 0 0 0 0 6.64h19.922a3.32 3.32 0 0 0 3.32-3.32V86.328a3.32 3.32 0 0 0-3.32-3.32zM37.52 13.281H17.598a3.32 3.32 0 0 0-3.32 3.32v23.243a3.32 3.32 0 0 0 6.64 0V19.922H37.52a3.32 3.32 0 0 0 0-6.64zM154.315 60.372l-67.403-47.48a3.32 3.32 0 0 0-3.824 0l-67.403 47.48a3.32 3.32 0 0 0 0 5.428l67.403 47.48a3.32 3.32 0 0 0 3.824 0l67.403-47.48a3.32 3.32 0 0 0 0-5.428zM85 106.505l-61.637-43.42L85 19.668l61.637 43.419z" fill="#272727"/><path d="M85 36.523a26.563 26.563 0 1 0 26.563 26.563A26.575 26.575 0 0 0 85 36.523zm0 6.641a19.945 19.945 0 0 1 19.856 18.38 66.354 66.354 0 0 0-37.595-7.514A20.07 20.07 0 0 1 85 43.164zm0 39.844a19.92 19.92 0 0 1-19.808-22.05 59.788 59.788 0 0 1 38.915 7.781A19.887 19.887 0 0 1 85 83.008z" fill="#272727"/><path d="M85 19.667L23.363 63.086 85 106.505l61.637-43.42zm.467 69.15a25.687 25.687 0 1 1 25.687-25.687 25.687 25.687 0 0 1-25.687 25.687z" fill="#280071"/></svg>