<svg xmlns="http://www.w3.org/2000/svg" width="160.327" height="138.315"><path d="M133.878 33.726h-8.025v2.133a3.94 3.94 0 0 1-3.937 3.937H90.727l-7.438 8.92a3.925 3.925 0 0 1-3 1.416h-.024a3.927 3.927 0 0 1-2.993-1.38l-7.652-8.956H38.413a3.941 3.941 0 0 1-3.936-3.937v-2.133h-8.025a.236.236 0 0 0-.236.235v77.85h107.897V33.96a.235.235 0 0 0-.235-.235zm-11.744 40.655h-83.94V57.783h83.94z" fill="#280071"/><path d="M37.659 76.21h85.01a4.195 4.195 0 0 0 4.19-4.19V57.248a4.195 4.195 0 0 0-4.19-4.19h-85.01a4.194 4.194 0 0 0-4.19 4.19V72.02a4.194 4.194 0 0 0 4.19 4.19zm.534-18.427h83.941v13.702h-83.94zM70.675 85.852a2.363 2.363 0 0 0-2.363-2.362H36.264a2.363 2.363 0 0 0 0 4.725h32.048a2.363 2.363 0 0 0 2.363-2.363zM90.276 88.215a2.363 2.363 0 0 0 0-4.725h-13.3a2.363 2.363 0 1 0 0 4.725zM124.063 83.49H99.024a2.363 2.363 0 0 0 0 4.725h25.04a2.363 2.363 0 0 0 0-4.725zM54.72 96.656a2.361 2.361 0 0 0-2.362-2.362H36.264a2.362 2.362 0 0 0 0 4.724h16.094a2.361 2.361 0 0 0 2.362-2.362zM99.024 94.294H63.608a2.362 2.362 0 1 0 0 4.724h35.416a2.362 2.362 0 0 0 0-4.724zM124.063 94.294h-17.756a2.362 2.362 0 1 0 0 4.724h17.756a2.362 2.362 0 1 0 0-4.724z" fill="#272727"/><path d="M157.965 111.81h-6.763V45.84a2.363 2.363 0 0 0-4.725 0v65.97h-7.64V33.96a4.966 4.966 0 0 0-4.96-4.96h-8.026v-6.406h15.938a4.695 4.695 0 0 1 4.688 4.69v7.873a2.363 2.363 0 1 0 4.725 0v-7.873a9.425 9.425 0 0 0-9.413-9.414H125.85V3.937A3.94 3.94 0 0 0 121.915 0h-61.28a2.362 2.362 0 1 0 0 4.724h60.492v30.348H90.36a3.923 3.923 0 0 0-3.024 1.415l-7.078 8.486-7.283-8.523a3.934 3.934 0 0 0-2.993-1.38H39.2V4.724h10.884a2.362 2.362 0 1 0 0-4.724H38.412a3.94 3.94 0 0 0-3.936 3.937V17.87H18.539a9.425 9.425 0 0 0-9.414 9.413v84.527H2.362A2.361 2.361 0 0 0 0 114.172v14.095a10.059 10.059 0 0 0 10.046 10.048H150.28a10.06 10.06 0 0 0 10.047-10.048v-14.095a2.362 2.362 0 0 0-2.362-2.362zM38.412 39.796h31.206l7.653 8.956a3.927 3.927 0 0 0 2.993 1.38h.023a3.925 3.925 0 0 0 3-1.416l7.439-8.92h31.19a3.94 3.94 0 0 0 3.935-3.937v-2.133h8.026a.235.235 0 0 1 .235.235v77.85H26.214V33.96a.236.236 0 0 1 .237-.235h8.025v2.133a3.941 3.941 0 0 0 3.936 3.937zm64.284 76.738l-2.03 4.646H59.662l-2.03-4.646zM13.85 27.284a4.695 4.695 0 0 1 4.689-4.69h15.937V29H26.45a4.966 4.966 0 0 0-4.96 4.96v77.85h-7.64zm141.753 100.983a5.328 5.328 0 0 1-5.322 5.322H10.046a5.328 5.328 0 0 1-5.322-5.322v-11.733h47.751l3.063 7.01a3.935 3.935 0 0 0 3.607 2.361h42.036a3.936 3.936 0 0 0 3.608-2.36l3.063-7.01h47.75v11.732z" fill="#272727"/><path d="M46.625 14.218a3.142 3.142 0 0 0-1.742 5.36l2.933 2.86-.692 4.036a3.139 3.139 0 0 0 4.56 3.312l3.625-1.906 3.625 1.906a3.142 3.142 0 0 0 4.56-3.312l-.692-4.037 2.932-2.858a3.142 3.142 0 0 0-1.741-5.36l-4.054-.589-1.812-3.673a3.142 3.142 0 0 0-5.636 0l-1.813 3.673zm7.922 2.249l.762-1.544.761 1.543a3.144 3.144 0 0 0 2.367 1.72l1.703.246-1.234 1.204a3.14 3.14 0 0 0-.902 2.78l.291 1.697-1.524-.801a3.144 3.144 0 0 0-2.924 0l-1.523.8.29-1.697a3.143 3.143 0 0 0-.903-2.78l-1.233-1.203 1.703-.247a3.142 3.142 0 0 0 2.366-1.718zM91.347 16.357a3.124 3.124 0 0 0-2.536-2.139l-4.054-.588-1.812-3.673a3.142 3.142 0 0 0-5.635 0l-1.813 3.673-4.053.588a3.143 3.143 0 0 0-1.742 5.36l2.933 2.86-.692 4.036a3.138 3.138 0 0 0 4.558 3.312l3.627-1.906 3.625 1.906a3.143 3.143 0 0 0 4.56-3.312l-.693-4.037 2.934-2.858a3.128 3.128 0 0 0 .793-3.222zm-7.621 3.278a3.14 3.14 0 0 0-.904 2.781l.29 1.697-1.525-.802a3.14 3.14 0 0 0-2.922 0l-1.524.802.291-1.697a3.143 3.143 0 0 0-.904-2.781l-1.233-1.201L77 18.185a3.135 3.135 0 0 0 2.366-1.718l.762-1.544.76 1.543a3.14 3.14 0 0 0 2.368 1.72l1.704.248zM116.24 16.357a3.126 3.126 0 0 0-2.537-2.139l-4.054-.588-1.813-3.673a3.142 3.142 0 0 0-5.635 0l-1.813 3.673-4.052.588a3.143 3.143 0 0 0-1.742 5.36l2.933 2.86-.692 4.036a3.138 3.138 0 0 0 4.559 3.312l3.625-1.906 3.626 1.906a3.142 3.142 0 0 0 4.559-3.312l-.693-4.037 2.933-2.858a3.126 3.126 0 0 0 .796-3.222zm-7.625 3.279l-.901 2.78.291 1.697-1.524-.801a3.14 3.14 0 0 0-2.924 0l-1.524.801.291-1.697a3.143 3.143 0 0 0-.904-2.781l-1.233-1.201 1.704-.249a3.136 3.136 0 0 0 2.366-1.718l.762-1.544.76 1.543a3.142 3.142 0 0 0 2.368 1.72l1.704.248z" fill="#272727"/></svg>