<svg xmlns="http://www.w3.org/2000/svg" width="141.501" height="141.5"><path d="M54.539 102.493l-6.384 19.152 19.152-6.384 6.778-6.778 17.89-17.89v36.757h-70.75V33.017h47.167V56.6h23.583v8.457L61.317 95.715zm6.778-.108l6.098 6.098-2.655 2.656-9.148 3.05 3.049-9.149zM73.108 36.35L88.64 51.883H73.108zM70.75 105.15L64.65 99.05l55.624-55.624 6.099 6.099zm62.41-62.411l-3.452 3.452-6.098-6.098 3.452-3.453a4.313 4.313 0 1 1 6.23 5.968q-.064.067-.131.13z" fill="#280071"/><path d="M7.759 7.759a2.434 2.434 0 0 0-.495.778 2.221 2.221 0 0 0 0 1.792 2.2 2.2 0 0 0 .495.779 2.368 2.368 0 0 0 3.349-3.35 2.47 2.47 0 0 0-3.35 0zM15.612 7.264a2.2 2.2 0 0 0-.778.495 2.391 2.391 0 0 0 0 3.349 2.358 2.358 0 0 0 4.033-1.675 2.48 2.48 0 0 0-.684-1.674 2.398 2.398 0 0 0-2.57-.495zM22.687 7.264a2.434 2.434 0 0 0-.778.495 2.391 2.391 0 0 0 0 3.349 2.724 2.724 0 0 0 .778.495 2.358 2.358 0 0 0 .896.189 2.335 2.335 0 0 0 2.359-2.311v-.048a2.48 2.48 0 0 0-.684-1.674 2.446 2.446 0 0 0-2.57-.495z" fill="#2b2b2b"/><path fill="#fff" d="M30.658 40.092h33.017v4.717H30.658zM30.658 54.242h33.017v4.717H30.658zM30.658 68.392h44.808v4.717H30.658zM30.658 82.542h30.658v4.717H30.658zM30.658 96.692h18.867v4.717H30.658zM30.658 110.842h14.15v4.717h-14.15z"/><path d="M132.47 28.3a8.962 8.962 0 0 0-6.384 2.646l-8.17 8.17V7.074A7.075 7.075 0 0 0 110.843 0H7.075A7.075 7.075 0 0 0 0 7.075v127.35a7.075 7.075 0 0 0 7.075 7.075h103.767a7.075 7.075 0 0 0 7.075-7.075V64.651l20.937-20.937A9.028 9.028 0 0 0 132.47 28.3zM4.717 7.075a2.358 2.358 0 0 1 2.358-2.358h103.767a2.358 2.358 0 0 1 2.358 2.358v7.075H4.717zM113.2 134.425a2.358 2.358 0 0 1-2.358 2.358H7.075a2.358 2.358 0 0 1-2.358-2.358V18.867H113.2v24.965l-14.15 14.15v-7.075L74.085 25.942H18.867v103.766H99.05v-46.19l14.15-14.15zm-56.303-34.29l-6.384 19.152 19.152-6.384 6.778-6.778 17.89-17.89v36.757h-70.75V30.658H70.75v23.584h23.583v8.457L63.675 93.357zm6.778-.109l6.099 6.099-2.656 2.655-9.148 3.05 3.05-9.148zm11.792-66.033l15.532 15.532H75.467zm-2.359 68.797l-6.098-6.098 55.623-55.624 6.099 6.099zm62.411-62.41l-3.452 3.452-6.099-6.099 3.453-3.452a4.313 4.313 0 1 1 6.23 5.967q-.065.067-.132.131z" fill="#2b2b2b"/></svg>