<svg xmlns="http://www.w3.org/2000/svg" width="139.117" height="182.665"><path d="M135.276 145.536h-.094a4.765 4.765 0 0 1-4.76-4.758v-.172a4.765 4.765 0 0 1 4.76-4.76h.357a3.578 3.578 0 0 0 3.506-4.293 42.293 42.293 0 0 0-12.644-22.55 3.577 3.577 0 0 0-5.312.462 3.464 3.464 0 0 0-.199.293 4.772 4.772 0 0 1-4.558 2.268 4.706 4.706 0 0 1-1.882-.614l-.154-.088a4.755 4.755 0 0 1-1.74-6.5l.029-.052a3.577 3.577 0 0 0-2.017-5.14 42.325 42.325 0 0 0-7.156-1.66V27.189a3.573 3.573 0 0 0-3.573-3.571H84.15v-6.883a3.573 3.573 0 0 0-3.57-3.574H68.052a16.732 16.732 0 0 0-32.693 0H22.834a3.573 3.573 0 0 0-3.573 3.574v6.883H3.573A3.573 3.573 0 0 0 0 27.189v128.088a3.573 3.573 0 0 0 3.573 3.574H59.11a42.515 42.515 0 0 0 8.564 11.77 3.576 3.576 0 0 0 5.504-.63 4.744 4.744 0 0 1 6.373-1.543l.154.088a4.76 4.76 0 0 1 1.74 6.504l-.052.09-.028.05a3.578 3.578 0 0 0 1.799 5.061c.05.021.1.039.15.056a42.745 42.745 0 0 0 25.803.714l.04-.01a3.58 3.58 0 0 0 2.1-5.167q-.014-.022-.027-.047a4.76 4.76 0 0 1 1.744-6.487l.004-.002.148-.087a4.758 4.758 0 0 1 6.5 1.743l.2.347c.04.066.081.132.124.196a3.58 3.58 0 0 0 5.328.716 42.303 42.303 0 0 0 13.48-22.273c.01-.04.02-.081.027-.122a3.579 3.579 0 0 0-3.509-4.282zM51.706 7.146a9.602 9.602 0 0 1 8.895 6.015H42.81a9.602 9.602 0 0 1 8.896-6.015zm-25.3 13.162h50.6v6.599a2.948 2.948 0 0 0-.016.282c0 .097.007.192.016.284v5.333H68.44V28.05a3.573 3.573 0 1 0-7.145 0v4.755H42.117V28.05a3.573 3.573 0 1 0-7.146 0v4.755h-8.565zM7.146 151.704V30.762h12.115v5.617a3.573 3.573 0 0 0 3.573 3.573H80.58a3.573 3.573 0 0 0 3.571-3.573v-5.617h12.116v66.79a42.636 42.636 0 0 0-11.175 1.77l-.102.034a3.576 3.576 0 0 0-2.074 4.984 4.76 4.76 0 0 1-1.887 6.22l-.157.09a4.732 4.732 0 0 1-6.4-1.59 3.579 3.579 0 0 0-5.412-.775 42.37 42.37 0 0 0-13.06 21.635 3.26 3.26 0 0 0-.033.15 3.579 3.579 0 0 0 3.154 4.264c.026.002.053.006.081.007a4.77 4.77 0 0 1 4.38 4.737v.183a4.725 4.725 0 0 1-4.613 4.747 3.58 3.58 0 0 0-3.41 4.26q.34 1.744.822 3.437H7.146zm116.087 12.565a11.926 11.926 0 0 0-13.683-1.243l-.15.086a11.924 11.924 0 0 0-5.846 11.862 35.71 35.71 0 0 1-14.467-.424 11.93 11.93 0 0 0-5.809-12.202l-.154-.09a11.887 11.887 0 0 0-12.896.636 35.096 35.096 0 0 1-6.832-12.634 11.833 11.833 0 0 0 7.33-11.002v-.18a11.963 11.963 0 0 0-6.808-10.747 35.144 35.144 0 0 1 7.413-12.281 11.856 11.856 0 0 0 13.114.79l.157-.091a11.927 11.927 0 0 0 5.896-11.409 35.79 35.79 0 0 1 14.392.146 11.927 11.927 0 0 0 5.834 12.026l.154.09a11.79 11.79 0 0 0 4.721 1.531 11.928 11.928 0 0 0 8.402-2.353 35.074 35.074 0 0 1 7.12 12.634 11.927 11.927 0 0 0-7.845 11.192v.172a11.923 11.923 0 0 0 7.494 11.056 35.114 35.114 0 0 1-7.537 12.435z" fill="#272727"/><path d="M107.708 125.035a3.573 3.573 0 0 0-.14 5.05 13.617 13.617 0 1 1-20.006.263 3.573 3.573 0 1 0-5.313-4.778 20.78 20.78 0 1 0 30.51-.396 3.572 3.572 0 0 0-5.051-.14z" fill="#272727"/><path d="M95.177 125.682l.099.075a3.573 3.573 0 1 0 4.331-5.683l-.097-.073a3.573 3.573 0 1 0-4.333 5.681z" fill="#272727"/><path d="M84.15 34.762l-5.857 4.917a1.057 1.057 0 0 0 .039.273H22.834c-1.973 0 2.024-.261 2.024-2.235l-5.597-2.955h-7.543v116.943H56.38q-.48-1.696-.822-3.437a3.58 3.58 0 0 1 3.41-4.26 4.725 4.725 0 0 0 4.612-4.747v-.183a4.77 4.77 0 0 0-4.379-4.737l-.081-.007a3.579 3.579 0 0 1-3.154-4.263c.01-.05.02-.102.033-.151a42.37 42.37 0 0 1 13.06-21.635 3.578 3.578 0 0 1 5.412.775 4.732 4.732 0 0 0 6.4 1.59l.158-.09a4.76 4.76 0 0 0 1.886-6.22 3.576 3.576 0 0 1 2.074-4.984l.102-.033a42.635 42.635 0 0 1 11.175-1.77V34.761zM38.686 50.92h17.623a3.573 3.573 0 1 1 0 7.146H38.686a3.573 3.573 0 1 1 0-7.146zm-16.9 0h6.143a3.573 3.573 0 1 1 0 7.146h-6.143a3.573 3.573 0 0 1 0-7.146zm3.573 88.54a3.573 3.573 0 1 1-7.146 0v-16.544a3.573 3.573 0 1 1 7.146 0zm28.12-45.77H21.786a3.573 3.573 0 0 1 0-7.147H53.48a3.573 3.573 0 1 1 0 7.146zm16.897-1.75a3.575 3.575 0 0 1-5.006.687l-.098-.075a3.574 3.574 0 0 1 4.32-5.694l.098.076a3.573 3.573 0 0 1 .686 5.006zm10.203-15.801H21.786a3.573 3.573 0 0 1 0-7.147H80.58a3.573 3.573 0 0 1 0 7.147z" fill="#280071"/></svg>