<svg xmlns="http://www.w3.org/2000/svg" width="151.999" height="140.124"><g fill="#272727"><path d="M92.888 36.63a2.969 2.969 0 1 0 4.198-4.2l-.04-.04a2.969 2.969 0 1 0-4.198 4.2z"/><path d="M140.782 64.718l10.348-10.347a2.969 2.969 0 0 0-2.1-5.068h-21.45a64.722 64.722 0 1 0-108.624 61.178 65.183 65.183 0 0 0 11.897 9.411l-8.944 15.801a2.969 2.969 0 0 0 2.583 4.431h15.29a2.969 2.969 0 0 0 2.583-1.506l6.324-11.173a65.5 65.5 0 0 0 32.06 0l6.323 11.173a2.969 2.969 0 0 0 2.584 1.506h15.289a2.969 2.969 0 0 0 2.584-4.43l-8.944-15.802a65.196 65.196 0 0 0 11.897-9.41 64.499 64.499 0 0 0 17.099-30.348h21.45a2.969 2.969 0 0 0 2.099-5.068zm-5.428-2.968h-20.719l6.51-6.51h20.718zM38.05 134.187h-8.466l6.461-11.416a63.829 63.829 0 0 0 6.824 2.902zm61.803 0h-8.466l-4.82-8.514a63.829 63.829 0 0 0 6.824-2.902zm6.43-27.904a59.045 59.045 0 0 1-13.017 9.845c-.058.028-.117.055-.174.087-.036.02-.069.044-.103.066a58.015 58.015 0 0 1-11.383 4.767 2.94 2.94 0 0 0-.461.133 59.358 59.358 0 0 1-32.853 0 2.946 2.946 0 0 0-.461-.133 58.01 58.01 0 0 1-11.383-4.767c-.034-.022-.067-.045-.103-.066-.057-.032-.116-.059-.174-.087a59.038 59.038 0 0 1-13.017-9.845 58.78 58.78 0 1 1 98.298-56.98h-1.537a2.969 2.969 0 0 0-2.099.87l-7.88 7.879a45.74 45.74 0 0 0-5.174-15.419 2.969 2.969 0 1 0-5.198 2.87 39.423 39.423 0 0 1 4.795 16.247H91.27a26.727 26.727 0 1 0 0 5.937h13.077a39.742 39.742 0 1 1-20.412-37.813 2.969 2.969 0 1 0 2.87-5.198 46.047 46.047 0 0 0-28.195-5.268A45.72 45.72 0 0 0 32.39 97.046a45.72 45.72 0 0 0 77.557-25.65l7.869 7.869a2.969 2.969 0 0 0 2.099.87h1.537a58.59 58.59 0 0 1-15.17 26.148zM74.414 59.12a2.968 2.968 0 0 0-4.055-1.087l-7.125 4.113a2.969 2.969 0 0 0 0 5.142l7.125 4.114a2.966 2.966 0 0 0 4.22-3.716h10.709a20.622 20.622 0 0 1-5.875 11.726 20.776 20.776 0 1 1 5.875-17.663H74.58a2.961 2.961 0 0 0-.165-2.63zm46.73 15.075l-6.509-6.509h20.719l6.51 6.51z"/></g><path d="M64.434 22.15a42.13 42.13 0 1 0 42.13 42.13 42.13 42.13 0 0 0-42.13-42.13zm.413 67.738a25.196 25.196 0 1 1 25.196-25.195 25.196 25.196 0 0 1-25.196 25.195z" fill="#280071"/></svg>