<svg xmlns="http://www.w3.org/2000/svg" width="191.918" height="125.967"><path d="M53.734 43.192l.184 28.656-14.185.383v36.763H141.51V43.192zm37.184 56.656c-14.36 0-26-11.193-26-25s11.64-25 26-25 26 11.193 26 25-11.64 25-26 25z" fill="#280071"/><g fill="#181818"><path d="M157.358 114.584H23.879V72.225h5.593v36.766h122.291V34.404a1.392 1.392 0 0 0-.42-1.014 1.471 1.471 0 0 0-1.047-.467H30.94a1.517 1.517 0 0 0-1.467 1.481v5.991H23.88v-5.991a6.96 6.96 0 0 1 2.092-5 7.038 7.038 0 0 1 4.968-2.074h119.357a7.069 7.069 0 0 1 5 2.103 6.94 6.94 0 0 1 2.062 4.971z"/><path d="M147.103 114.587H34.14V72.231h5.593v36.763H141.51V43.192H53.734v-5.593h93.369v76.988z"/><path d="M90.615 103.026a28.265 28.265 0 1 1 28.278-28.266 28.297 28.297 0 0 1-28.278 28.266zm0-50.937A22.672 22.672 0 1 0 113.3 74.76a22.696 22.696 0 0 0-22.685-22.67z"/><path d="M90.618 86.056a11.29 11.29 0 1 1 11.293-11.3 11.306 11.306 0 0 1-11.293 11.3zm0-16.986a5.696 5.696 0 1 0 5.7 5.686 5.696 5.696 0 0 0-5.7-5.686z"/><path d="M80.624 97.713L75.3 96.007a16.1 16.1 0 0 1 30.642-.02l-5.321 1.722a10.506 10.506 0 0 0-19.996.004zM161.86 125.967H19.364a8.484 8.484 0 0 1-8.488-8.494v-8.48h159.476v8.48a8.491 8.491 0 0 1-8.494 8.494zm-145.39-11.38v2.886a2.869 2.869 0 0 0 .844 2.051 2.899 2.899 0 0 0 2.05.85H161.86a2.908 2.908 0 0 0 2.057-.854 2.873 2.873 0 0 0 .844-2.047v-2.886z"/><g><path d="M45.108 0h25.251v5.593H45.108zM56.264 9.104h46.184v5.593H56.264z"/></g><g><path d="M12.348 58.064H27.69v5.593H12.348zM12.348 48.969h31.834v5.593H12.348z"/><path d="M56.53 75.027H0V37.6h56.53zM5.593 69.434h45.344V43.192H5.593z"/></g><g><path d="M179.275 92.103l3.956-3.954 7.982 7.988-3.957 3.953z"/><path d="M174.531 100.808l-9.896-27.293 27.283 9.888zm-.563-17.962l2.824 7.786 4.958-4.964z"/></g><g><path d="M119.945 59.105h5.593v5.593h-5.593zM168.074 64.698h-5.317v-5.593h5.317zm-31.903 0h-5.316v-5.593h5.316zM173.392 59.105h5.593v5.593h-5.593zM178.985 53.789h-5.593V48.47h5.593zm0-10.637h-5.593v-5.316h5.593zm0-10.632h-5.593v-5.315h5.593zm0-10.636h-5.593v-5.316h5.593zM173.392 5.659h5.593v5.593h-5.593zM168.074 11.252h-5.316V5.66h5.316zm-10.635 0h-5.314V5.66h5.315zm-10.631 0h-5.318V5.66h5.317zm-10.635 0h-5.318V5.66h5.318zM119.945 5.659h5.593v5.593h-5.593zM125.538 53.789h-5.593V48.47h5.593zm0-31.905h-5.593v-5.316h5.593z"/></g></g></svg>