<svg xmlns="http://www.w3.org/2000/svg" width="134" height="163.352"><path d="M100.287 16.335H33.713A35.868 35.868 0 0 1 18.06 31.987V72.84A74.322 74.322 0 0 0 67 143.346a74.322 74.322 0 0 0 48.939-70.506V31.987a35.867 35.867 0 0 1-15.652-15.652zM67 99.935a26.53 26.53 0 1 1 26.53-26.531A26.53 26.53 0 0 1 67 99.934z" fill="#280071"/><path d="M130.81 19.143A15.97 15.97 0 0 1 114.857 3.19a3.19 3.19 0 0 0-3.19-3.19H22.333a3.19 3.19 0 0 0-3.19 3.19A15.97 15.97 0 0 1 3.19 19.143 3.19 3.19 0 0 0 0 22.333V74.4a92.673 92.673 0 0 0 66.084 88.82 3.19 3.19 0 0 0 1.833-.001A92.683 92.683 0 0 0 134 74.398V22.334a3.19 3.19 0 0 0-3.19-3.19zm-3.191 55.256A85.802 85.802 0 0 1 67 156.826 86.268 86.268 0 0 1 6.381 74.399V25.297A22.386 22.386 0 0 0 25.297 6.38h83.406a22.386 22.386 0 0 0 18.916 18.916z" fill="#272727"/><path d="M119.328 29.509a28.74 28.74 0 0 1-14.837-14.837 3.19 3.19 0 0 0-2.922-1.91H79.756a3.19 3.19 0 1 0 0 6.38H99.55a35.074 35.074 0 0 0 15.306 15.307v39.95A72.679 72.679 0 0 1 67 143.346 72.679 72.679 0 0 1 19.143 74.4v-39.95a35.076 35.076 0 0 0 15.306-15.306h19.796a3.19 3.19 0 0 0 0-6.381H32.43a3.191 3.191 0 0 0-2.922 1.91A28.74 28.74 0 0 1 14.672 29.51a3.191 3.191 0 0 0-1.91 2.922V74.4a79.423 79.423 0 0 0 53.174 75.348 3.19 3.19 0 0 0 2.128 0 79.424 79.424 0 0 0 53.174-75.348V32.43a3.191 3.191 0 0 0-1.91-2.922z" fill="#272727"/><path d="M67 46.581a28.714 28.714 0 1 0 28.714 28.714A28.747 28.747 0 0 0 67 46.581zm0 51.048a22.333 22.333 0 1 1 22.333-22.334A22.359 22.359 0 0 1 67 97.63z" fill="#272727"/><path d="M82.018 66.658a3.192 3.192 0 0 0-4.512 0L63.81 80.354l-4.125-4.124a3.19 3.19 0 1 0-4.513 4.512l6.381 6.381a3.191 3.191 0 0 0 4.513 0L82.018 71.17a3.191 3.191 0 0 0 0-4.512z" fill="#272727"/></svg>