<svg xmlns="http://www.w3.org/2000/svg" viewbox="0 0 18.313 10.406" width="18.313" height="10.406"><path d="M.222 10.394h1.589a.293.293 0 0 0 .29-.182l.732-2.072a.175.175 0 0 1 .18-.14h3.37a.162.162 0 0 1 .118.035.319.319 0 0 1 .062.119l.718 2.044a.248.248 0 0 0 .263.2h2.03a.163.163 0 0 0 .145-.07.308.308 0 0 0 .049-.182.433.433 0 0 0-.028-.126L6.328.32a.418.418 0 0 0-.414-.308H3.842a.349.349 0 0 0-.228.063.5.5 0 0 0-.132.217l-3.439 9.7a.385.385 0 0 0-.028.168.2.2 0 0 0 .207.238zm3.329-4.256c-.1 0-.151-.037-.151-.112a.459.459 0 0 1 .027-.126l1.174-3.262a.13.13 0 0 1 .083-.1.12.12 0 0 1 .1.084l1.16 3.276a.436.436 0 0 1 .014.126.112.112 0 0 1-.138.112H3.554zm14.543-1.75h-2.39V1.966a.2.2 0 0 0-.249-.21h-1.008a.293.293 0 0 0-.214.063.326.326 0 0 0-.063.231v2.338h-2.389a.213.213 0 0 0-.208.266v1.022a.305.305 0 0 0 .063.21.273.273 0 0 0 .214.07h2.32V8.21a.437.437 0 0 0 .07.28.287.287 0 0 0 .234.084h1.009a.23.23 0 0 0 .159-.056.2.2 0 0 0 .062-.154V5.942h2.224a.46.46 0 0 0 .283-.07.284.284 0 0 0 .09-.238V4.612a.239.239 0 0 0-.055-.161.193.193 0 0 0-.152-.063z" fill="currentColor" fill-rule="evenodd"/></svg>