<svg xmlns="http://www.w3.org/2000/svg" viewbox="0 0 15.438 10.406" width="15.438" height="10.406"><path d="M.219 10.394h1.586a.293.293 0 0 0 .29-.182l.731-2.072a.175.175 0 0 1 .18-.14h3.366a.161.161 0 0 1 .117.035.3.3 0 0 1 .062.119l.718 2.044a.246.246 0 0 0 .262.2h2.028a.166.166 0 0 0 .145-.07.315.315 0 0 0 .048-.182.433.433 0 0 0-.033-.13L6.312.316A.431.431 0 0 0 6.16.092a.421.421 0 0 0-.262-.084h-2.07a.347.347 0 0 0-.227.063.485.485 0 0 0-.131.217l-3.435 9.7a.385.385 0 0 0-.028.168.2.2 0 0 0 .207.238zm3.325-4.256c-.1 0-.152-.037-.152-.112A.433.433 0 0 1 3.42 5.9l1.172-3.262a.129.129 0 0 1 .083-.1.12.12 0 0 1 .1.084l1.158 3.276a.436.436 0 0 1 .014.126.112.112 0 0 1-.138.112H3.547zm11.905 0a.209.209 0 0 0-.055-.154.2.2 0 0 0-.152-.056h-3.476a.205.205 0 0 0-.207.252v1.022a.306.306 0 0 0 .062.217.317.317 0 0 0 .228.063h3.242a.3.3 0 0 0 .358-.308V6.138z" fill="currentColor" fill-rule="evenodd"/></svg>