<svg xmlns="http://www.w3.org/2000/svg" width="33" height="37" viewbox="0 0 450.526 510.998"><g fill="currentColor"><path d="M450.526 260.702v-.16c0-.062-.007-.125-.007-.187a7.352 7.352 0 0 0-.028-.507 4 4 0 0 0-.039-.312c-.02-.14-.035-.277-.062-.413a6.94 6.94 0 0 0-.094-.41c-.027-.1-.046-.202-.078-.304a7.05 7.05 0 0 0-.163-.483c-.024-.059-.04-.117-.063-.172l-.058-.152v-.007l-46.23-116.488h39.263a7.561 7.561 0 0 0 7.56-7.56V102.3a7.559 7.559 0 0 0-7.56-7.56h-65.782l-40.433-40.432a23.533 23.533 0 0 0-16.748-6.936h-62.047a39.99 39.99 0 0 0-6.994-7.692V7.56a7.559 7.559 0 0 0-7.56-7.56H207.12a7.561 7.561 0 0 0-7.56 7.56v32.12a40.097 40.097 0 0 0-6.99 7.692h-18.206a7.558 7.558 0 1 0 0 15.115h11.816a39.551 39.551 0 0 0 .21 16.129h-49.188a7.55 7.55 0 0 0-5.345 2.214l-42.651 42.648a8.501 8.501 0 0 1-6.055 2.506H15.12V109.86h61.353a7.557 7.557 0 0 0 5.345-2.215l42.647-42.647a8.514 8.514 0 0 1 6.058-2.51h8.484a7.558 7.558 0 1 0 0-15.116h-8.484a23.533 23.533 0 0 0-16.748 6.936L73.34 94.741H7.56A7.559 7.559 0 0 0 0 102.3v31.247a7.561 7.561 0 0 0 7.56 7.56h39.259L.593 257.594v.007l-.063.152c-.02.055-.035.113-.058.172-.059.16-.117.32-.164.483-.031.102-.05.203-.078.304a6.939 6.939 0 0 0-.094.41c-.027.136-.042.273-.062.413a4.015 4.015 0 0 0-.039.312c-.016.168-.023.34-.027.507 0 .062-.008.125-.008.187v18.14a47.93 47.93 0 0 0 47.875 47.876h20.156a47.93 47.93 0 0 0 47.875-47.876v-18.14c0-.062-.007-.125-.011-.187-.004-.168-.008-.34-.024-.507-.011-.105-.027-.21-.039-.312a7.027 7.027 0 0 0-.066-.413c-.023-.14-.058-.273-.093-.41-.024-.1-.047-.202-.078-.304a7.044 7.044 0 0 0-.164-.483c-.02-.059-.035-.117-.059-.172l-.058-.152-.004-.007-46.226-116.488H83.15a23.536 23.536 0 0 0 16.749-6.94l40.432-40.432h52.956a39.822 39.822 0 0 0 6.276 6.682v28.593a7.56 7.56 0 1 0 15.12 0V108.42a39.645 39.645 0 0 0 21.165 0v171.774a7.56 7.56 0 0 0 15.119 0V100.417a40.124 40.124 0 0 0 6.277-6.682h52.951l40.433 40.433a23.55 23.55 0 0 0 16.748 6.94h14.067l-46.227 116.487-.003.007-.059.152c-.023.055-.039.113-.058.172-.059.16-.117.32-.164.483-.031.102-.055.203-.078.304-.035.137-.07.27-.094.41a4.797 4.797 0 0 0-.062.413 7.532 7.532 0 0 0-.043.312c-.016.168-.02.34-.023.507-.004.062-.012.125-.012.187v18.14a47.93 47.93 0 0 0 47.875 47.876h20.16a47.927 47.927 0 0 0 47.871-47.876v-17.98zM57.953 154.039l39.263 98.943H18.69zm42.835 124.643A32.793 32.793 0 0 1 68.03 311.44H47.875a32.796 32.796 0 0 1-32.76-32.757v-10.584h85.673zm331.048-25.7H353.31l39.263-98.943zM214.678 15.12h21.166v16.557a39.645 39.645 0 0 0-21.166 0zM200.57 70.047a24.694 24.694 0 1 1 24.694 24.694 24.722 24.722 0 0 1-24.694-24.694zm160.749 53.43L318.67 80.83a7.557 7.557 0 0 0-5.345-2.214h-49.19a39.532 39.532 0 0 0 .211-16.125h55.657a8.51 8.51 0 0 1 6.058 2.507l42.648 42.647a7.557 7.557 0 0 0 5.345 2.215h61.356v16.128h-68.035a8.514 8.514 0 0 1-6.058-2.51zm74.09 155.205a32.793 32.793 0 0 1-32.757 32.757h-20.156a32.793 32.793 0 0 1-32.756-32.757v-10.584h85.668z"/><path d="M310.429 449.641v-18.768a27.746 27.746 0 0 0-27.716-27.715h-31.75v-87.602a7.56 7.56 0 1 0-15.119 0v87.602h-21.166V164.285a7.56 7.56 0 0 0-15.118 0v238.873h-31.747a27.75 27.75 0 0 0-27.72 27.715v18.69a27.748 27.748 0 0 0-26.202 27.673v26.207a7.558 7.558 0 0 0 7.56 7.555h206.62a7.557 7.557 0 0 0 7.555-7.555V477.24a27.748 27.748 0 0 0-25.197-27.599zm-155.213-18.768a12.609 12.609 0 0 1 12.597-12.596h114.9a12.614 12.614 0 0 1 12.6 12.596v18.648H155.217zm165.295 65.01H129.01V477.24a12.614 12.614 0 0 1 12.596-12.6H307.91a12.612 12.612 0 0 1 12.597 12.6v18.643z"/></g></svg>