<svg xmlns="http://www.w3.org/2000/svg" viewbox="0 0 128.643 128.675" width="30" height="30"><path d="M120.747.5a10.375 10.375 0 0 1 4.464 1.87c2.514 1.924 3.433 4.69 3.432 7.819q-.018 31.011-.006 62.022 0 23.154.005 46.308a9.527 9.527 0 0 1-9.856 10.156q-47.926-.016-95.853-.008l-13.316-.001a9.35 9.35 0 0 1-9.55-9.2c-.017-.439-.007-.879-.007-1.319 0-35.51.057-71.02-.06-106.53C-.018 6.175 1.788 1.723 8.02.129a17.685 17.685 0 0 1 3.923 0H114.77a32.445 32.445 0 0 1 5.977.37zm-11.209 109.085v-.8c0-11.599.033-23.198-.018-34.797a48.658 48.658 0 0 0-1.44-12.227c-1.65-6.268-5.02-11.09-11.356-13.388a29.685 29.685 0 0 0-9.416-1.538c-7.56-.209-13.588 2.663-17.953 8.896-.232.332-.471.659-.707.988l-.3-.094v-8.161H50.322v61.06H69.18v-1.379c0-9.52-.015-19.039.013-28.558.006-1.875.102-3.757.287-5.622.623-6.265 3.765-9.725 9.65-10.351 5.65-.602 9.55 1.584 10.751 7.55a30.801 30.801 0 0 1 .632 5.823c.073 10.399.053 20.798.066 31.197v1.4zm-71.512-.027V48.446H19.292v61.112zm1.673-80.72a11.021 11.021 0 1 0-11.02 11.093 11.062 11.062 0 0 0 11.02-11.093z" fill="#2967b2"/><path d="M109.538 109.585h-18.96v-1.401c-.012-10.4.008-20.799-.065-31.197a30.801 30.801 0 0 0-.632-5.823c-1.2-5.966-5.1-8.152-10.75-7.55-5.886.626-9.028 4.086-9.65 10.35a58.654 58.654 0 0 0-.288 5.623c-.028 9.52-.013 19.039-.013 28.558v1.379H50.322v-61.06h18.026v8.16l.3.095c.236-.33.475-.656.707-.988 4.365-6.233 10.393-9.105 17.952-8.896a29.685 29.685 0 0 1 9.416 1.538c6.337 2.299 9.707 7.12 11.357 13.388a48.658 48.658 0 0 1 1.44 12.227c.051 11.599.018 23.198.018 34.797zM38.026 109.558H19.292V48.446h18.734z" fill="#fefefe"/><path d="M39.699 28.838a11.021 11.021 0 1 1-11.15-10.949A11.104 11.104 0 0 1 39.7 28.838z" fill="#fdfdfe"/></svg>