<svg xmlns="http://www.w3.org/2000/svg" width="206" height="49" viewbox="0 0 419.96 98.951"><g fill="currentColor"><path d="M59.426 26.89q0 10.31-11.722 14.555a32.897 32.897 0 0 1 6.972 2.93 15.452 15.452 0 0 1 8.188 14.25 17.702 17.702 0 0 1-7.176 14.807q-7.178 5.51-19.203 5.507-4.346 0-11.016-.503-6.67-.504-9.804-.506a41.79 41.79 0 0 0-5.154.302l-4.75.608a4.296 4.296 0 0 0-.708.1h-.707Q-.001 78.84 0 75.302q0-3.235 3.133-3.235a20.046 20.046 0 0 1 2.729.303 14.3 14.3 0 0 0 2.122.201q5.155 0 5.155-7.478v-40.63q0-7.578-5.155-7.58a13.133 13.133 0 0 0-2.122.204 18.369 18.369 0 0 1-2.73.303Q0 17.39 0 14.156q0-3.536 4.649-3.537h1.314l4.952.707a42.605 42.605 0 0 0 5.76.305q3.841 0 10.916-.608 4.75-.401 10.208-.404 10.207 0 15.918 4.295a14.143 14.143 0 0 1 5.71 11.977zM20.72 31.237q0 5.359.96 6.621.96 1.263 5.306 1.262h5.66q17.888 0 17.889-11.621 0-10.614-14.757-10.613-10.309 0-12.683 1.314-2.376 1.316-2.375 6.772zm0 20.518v11.219q0 6.568 2.223 8.084 2.222 1.517 12.128 1.515 18.898 0 18.9-14.148 0-13.037-18.193-13.037H27.39q-5.458 0-6.266 2.426a13.646 13.646 0 0 0-.404 3.94zM95.102 80.152q-10.611 0-16.978-7.326-6.368-7.327-6.368-19.658 0-12.328 6.417-19.656 6.418-7.328 17.233-7.328 11.014 0 17.384 7.175 6.366 7.178 6.367 19.506 0 12.331-6.57 19.809-6.57 7.482-17.485 7.478zm.506-47.299q-7.075 0-11.117 4.954-4.045 4.95-4.448 14.046v1.315q0 9.5 3.993 14.908a13.082 13.082 0 0 0 11.168 5.406 13.833 13.833 0 0 0 11.572-5.406q4.192-5.405 4.194-15.01 0-20.212-15.362-20.213zM142.502 30.986v2.88a19.556 19.556 0 0 1 16.17-7.682 20.43 20.43 0 0 1 10.31 2.779 14.538 14.538 0 0 1 6.57 6.924 23.98 23.98 0 0 1 1.413 8.994v19.203q0 4.345.102 5.154.504 3.437 2.728 3.436a14.67 14.67 0 0 0 2.375-.252 14.321 14.321 0 0 1 2.073-.254 3.201 3.201 0 0 1 2.273.91 2.953 2.953 0 0 1 .961 2.225 3.153 3.153 0 0 1-1.213 2.525 4.43 4.43 0 0 1-2.931 1.012 43.169 43.169 0 0 1-4.649-.404 49.073 49.073 0 0 0-6.064-.405 38.84 38.84 0 0 0-4.346.201q-5.055.607-5.356.608-4.043 0-4.043-3.537 0-3.132 3.504-3.135a9.725 9.725 0 0 1 1.854.203 17.23 17.23 0 0 0 2.473.404q2.474 0 2.68-5.558v-19a35.88 35.88 0 0 0-.504-7.38 9.759 9.759 0 0 0-3.925-5.962 12.863 12.863 0 0 0-7.551-2.324q-8.055 0-11.578 5.762-2.416 3.94-2.416 13.44v13.442a20.035 20.035 0 0 0 .606 6.065 2.223 2.223 0 0 0 2.224 1.617 9.786 9.786 0 0 0 2.223-.354 9.977 9.977 0 0 1 2.325-.355q3.131 0 3.132 3.387 0 3.284-4.043 3.285-.81 0-5.254-.608a37.024 37.024 0 0 0-4.953-.302 52.932 52.932 0 0 0-5.66.404q-4.448.504-5.052.506-4.246 0-4.246-3.438 0-3.231 3.294-3.234a10.83 10.83 0 0 1 1.905.305 12.822 12.822 0 0 0 2.727.302q3.09 0 3.192-5.861V39.928a12.933 12.933 0 0 0-.875-4.7 2.401 2.401 0 0 0-2.317-1.263 12.905 12.905 0 0 0-2.11.254 12.9 12.9 0 0 1-2.11.252q-3.707 0-3.706-3.235 0-3.334 4.548-3.334a4.319 4.319 0 0 1 1.011.1l3.74.404a13.914 13.914 0 0 0 2.83-.252q2.626-.252 2.728-.252 2.93 0 2.931 3.084zM206.881 30.986v2.88a19.556 19.556 0 0 1 16.17-7.682 20.43 20.43 0 0 1 10.31 2.779 14.538 14.538 0 0 1 6.57 6.924 23.98 23.98 0 0 1 1.413 8.994v19.203q0 4.345.102 5.154.504 3.437 2.728 3.436a14.672 14.672 0 0 0 2.375-.252 14.319 14.319 0 0 1 2.073-.254 3.201 3.201 0 0 1 2.273.91 2.953 2.953 0 0 1 .961 2.225 3.153 3.153 0 0 1-1.213 2.525 4.43 4.43 0 0 1-2.932 1.012 43.169 43.169 0 0 1-4.648-.404 49.073 49.073 0 0 0-6.064-.405 38.84 38.84 0 0 0-4.346.201q-5.055.607-5.357.608-4.043 0-4.043-3.537 0-3.132 3.505-3.135a9.727 9.727 0 0 1 1.854.203 17.228 17.228 0 0 0 2.472.404q2.475 0 2.681-5.558v-19a35.872 35.872 0 0 0-.504-7.38 9.759 9.759 0 0 0-3.926-5.962 12.863 12.863 0 0 0-7.55-2.324q-8.055 0-11.578 5.762-2.416 3.94-2.416 13.44v13.442a20.035 20.035 0 0 0 .606 6.065 2.223 2.223 0 0 0 2.224 1.617 9.786 9.786 0 0 0 2.223-.354 9.977 9.977 0 0 1 2.324-.355q3.132 0 3.133 3.387 0 3.284-4.043 3.285-.81 0-5.255-.608a37.027 37.027 0 0 0-4.952-.302 52.93 52.93 0 0 0-5.66.404q-4.449.504-5.053.506-4.245 0-4.245-3.438 0-3.231 3.294-3.234a10.83 10.83 0 0 1 1.904.305 12.822 12.822 0 0 0 2.728.302q3.09 0 3.191-5.861V39.928a12.933 12.933 0 0 0-.875-4.7 2.401 2.401 0 0 0-2.316-1.263 12.905 12.905 0 0 0-2.11.254 12.9 12.9 0 0 1-2.11.252q-3.707 0-3.706-3.235 0-3.334 4.548-3.334a4.319 4.319 0 0 1 1.01.1l3.74.404a13.914 13.914 0 0 0 2.83-.252q2.627-.252 2.729-.252 2.93 0 2.931 3.084z"/><path d="M250.238 86.723a5.505 5.505 0 0 1-1.82 3.941 9.316 9.316 0 0 0 5.586 2.022q5.699 0 8.193-3.336 2.491-3.334 2.494-10.713l.1-31.735q0-8.891-.51-10.966a2.537 2.537 0 0 0-2.752-2.07 13.1 13.1 0 0 0-2.857.404 5.853 5.853 0 0 1-1.835.302q-3.263 0-3.264-3.234 0-3.334 4.245-3.336 1.516 0 2.628.102 3.233.304 4.548.302a19.121 19.121 0 0 0 2.526-.252 19.428 19.428 0 0 1 2.527-.252q2.93 0 2.931 3.235c0 .338-.035 1.01-.102 2.02q-.1 1.819-.1 2.93-.103 1.618-.304 7.278-.203 6.366-.202 9.803V76.01a58.115 58.115 0 0 1-.505 8.994 17.817 17.817 0 0 1-3.639 8.086q-4.85 5.86-13.543 5.861a16.37 16.37 0 0 1-10.106-3.031 9.151 9.151 0 0 1-4.043-7.58 6.133 6.133 0 0 1 1.466-4.196 4.912 4.912 0 0 1 6.974-.404 3.937 3.937 0 0 1 1.364 2.983zm16.98-64.077a5.695 5.695 0 0 1-5.66-5.66 5.282 5.282 0 0 1 1.667-3.941 5.538 5.538 0 0 1 3.992-1.617 5.62 5.62 0 0 1 4.043 1.668 5.263 5.263 0 0 1 1.718 3.89 5.37 5.37 0 0 1-1.718 3.992 5.62 5.62 0 0 1-4.043 1.668zM326.541 75.908v-3.133q-5.358 7.38-15.868 7.377-11.926 0-16.574-7.377a15.371 15.371 0 0 1-2.224-7.58q-.102-2.12-.101-8.894v-8.389q0-13.843-2.959-13.846a19.028 19.028 0 0 0-1.94.153 19.12 19.12 0 0 1-2.04.15q-3.572 0-3.572-3.283 0-3.185 4.346-3.184a25.623 25.623 0 0 1 2.981.252 25.197 25.197 0 0 0 2.982.252 26.763 26.763 0 0 0 3.133-.303q1.516-.202 1.718-.2 3.132 0 3.133 3.84v8.69l-.303 7.48v6.57q0 8.791 1.415 12.632 2.324 6.37 11.118 6.367a14.81 14.81 0 0 0 7.68-1.97 10.651 10.651 0 0 0 4.65-5.205q1.615-3.94 1.617-14.957V39.22q-.507-4.85-2.628-4.85h-3.032q-3.54 0-3.537-3.038 0-3.43 3.941-3.43.91 0 2.78.202 1.869.205 2.779.203a21.064 21.064 0 0 0 2.425-.203 21.352 21.352 0 0 1 2.426-.202q3.032 0 3.032 3.243a9.665 9.665 0 0 1-.202 2.226 94.087 94.087 0 0 0-.506 11.346v15.6q0 6.178.102 6.886.504 5.37 2.83 5.37a11.415 11.415 0 0 0 2.02-.253 11.58 11.58 0 0 1 2.022-.252q3.435 0 3.437 3.334 0 3.44-4.246 3.438a24.376 24.376 0 0 1-2.627-.203q-2.527-.302-3.133-.303c-.202 0-.91.068-2.122.201a8.874 8.874 0 0 1-2.123.305q-2.83 0-2.83-2.932zM363.026 30.783v2.777a16.42 16.42 0 0 1 14.048-7.376q7.073 0 11.47 3.992a13.23 13.23 0 0 1 4.397 10.258 11.213 11.213 0 0 1-2.224 7.226 7.136 7.136 0 0 1-5.861 2.78 5.772 5.772 0 0 1-3.941-1.415 4.4 4.4 0 0 1-1.618-3.437 4.053 4.053 0 0 1 1.213-2.881 3.811 3.811 0 0 1 2.83-1.262 6.096 6.096 0 0 1 1.314.303 5.029 5.029 0 0 0 .606-2.225 6.091 6.091 0 0 0-2.577-4.95 10.083 10.083 0 0 0-6.418-2.022q-7.884 0-10.51 7.074-1.62 4.348-1.618 13.139v6.67q0 6.773.1 7.58.506 5.762 3.135 5.761a11.496 11.496 0 0 0 2.728-.345 8.586 8.586 0 0 1 1.92-.262q3.234 0 3.234 3.185 0 3.487-4.129 3.487h-.403a44.505 44.505 0 0 1-4.584-.354 43.966 43.966 0 0 0-4.583-.353q-4.03 0-6.345.2l-5.64.507q-4.132 0-4.13-3.537 0-3.132 3.875-3.135a8.622 8.622 0 0 1 1.53.101l1.53.303a8.48 8.48 0 0 0 1.428.203q2.55 0 2.754-4.648v-5.154l-.303-22.944q-.303-5.962-3.032-5.963a11.364 11.364 0 0 0-2.223.303 11.278 11.278 0 0 1-2.224.305q-3.336 0-3.335-3.235 0-3.536 4.346-3.537a26.916 26.916 0 0 1 3.032.252 26.394 26.394 0 0 0 3.032.252 21.344 21.344 0 0 0 2.627-.252 6.488 6.488 0 0 1 1.921-.252q2.626 0 2.628 2.881zM408.176 0a11.765 11.765 0 0 1 11.784 11.783 11.784 11.784 0 1 1-20.091-8.338A11.387 11.387 0 0 1 408.176 0zm0 21.8a10.01 10.01 0 0 0 10.017-10.017 10.017 10.017 0 1 0-17.087 7.07 9.64 9.64 0 0 0 7.07 2.948zm4.714-13.14a2.668 2.668 0 0 1-1.709 2.711 2.983 2.983 0 0 1 .943 2.533v1.06q0 .827.383.827t.383-1.121v-1.178c0-.863.314-1.297.943-1.297a.886.886 0 0 1 1.001 1.002v2.004a2.148 2.148 0 0 1-2.444 2.416 2.07 2.07 0 0 1-2.328-2.357v-1.531c0-.668-.139-1.08-.413-1.239a3.237 3.237 0 0 0-1.473-.236h-1.532c-.117 0-.177.04-.177.119v2.475q0 .943.472.943h.825a.769.769 0 0 1 .884.855q0 .97-1.12.971a1.768 1.768 0 0 1-.294-.058l-.884-.12a2.543 2.543 0 0 1-.472-.058h-.412a3.563 3.563 0 0 0-.53.058 3.529 3.529 0 0 1-.59.059l-.825.06a.827.827 0 0 1-.354.06q-1.06 0-1.06-.915a.794.794 0 0 1 .884-.912h.825q.53 0 .53-.885V8.131a2.549 2.549 0 0 0-.117-.649.473.473 0 0 0-.06-.177c-.039-.079-.157-.118-.353-.118-.235.04-.334.06-.295.06a2.206 2.206 0 0 1-.53.058.794.794 0 0 1-.884-.913q0-.914 1.12-.914h.294l.825.12h.825q-.06 0 1.18-.12h1.236a8.934 8.934 0 0 1 1.178-.058q4.124 0 4.125 3.24zm-6.423-.766v2.475c0 .04.04.059.118.059h1.591q2.593 0 2.593-1.71 0-1.529-2.24-1.53-2.062 0-2.062.706z"/></g></svg>