<svg xmlns="http://www.w3.org/2000/svg" width="97.863" height="115.107"><path fill="none" d="M69.108 88.188l8.18-5.766L88.473 98.29l-8.18 5.766zM82.533 107.228l8.179-5.767 1.74 2.468-8.179 5.767zM56.042 60.977a20.493 20.493 0 1 0-28.559-4.937 20.514 20.514 0 0 0 28.559 4.937zm-22.099-27.97l3.172-2.237L49.548 48.4l-3.175 2.238zm14.918 21.158l3.173-2.239 2.485 3.526-3.173 2.237z"/><path d="M46.755 71.743a25.042 25.042 0 0 1-17.508-8.29A24.368 24.368 0 0 1 55.7 22.733 25.175 25.175 0 0 1 72.169 40.06a28.25 28.25 0 1 0-20.481 31.427 25.187 25.187 0 0 1-4.933.256zM65.129 82.547l8.18-5.766 1.739 2.467-8.18 5.766z" fill="none"/><path d="M55.7 22.732a24.37 24.37 0 1 1-26.453 40.72 25.128 25.128 0 0 0 22.44 8.035A28.235 28.235 0 0 0 72.17 40.06 25.175 25.175 0 0 0 55.7 22.732z" fill="#ef6e2d"/><path d="M59.719 81.613l23.618 33.494 7.223-5.093 7.303-5.15-23.62-33.495-5.676 4.004-4.264-6.046a32.146 32.146 0 1 0-3.173 2.236l4.263 6.047zm-38.581-21.1a28.263 28.263 0 1 1 30.55 10.974 28.289 28.289 0 0 1-30.55-10.974zm47.969 27.676l8.18-5.767 11.187 15.866-8.18 5.765zm15.165 21.506l-1.74-2.467 8.18-5.768 1.74 2.47zm-9.224-30.447l-8.18 5.766-1.74-2.467 8.18-5.767z" fill="#404040"/><path d="M58.278 64.151a24.382 24.382 0 1 0-29.031-.698 24.403 24.403 0 0 0 29.03.698zM32.42 27.481a20.493 20.493 0 1 1-4.938 28.56 20.517 20.517 0 0 1 4.938-28.56z" fill="#404040"/><path fill="#404040" d="M33.94 33.01l3.173-2.238 12.436 17.626-3.173 2.239zM48.861 54.166l3.173-2.24 2.486 3.525-3.172 2.239zM43.822 3.883L43.785 0a44.976 44.976 0 0 0-4.076.228l.394 3.862a40.303 40.303 0 0 1 3.72-.207zM80.479 61.95l3.489 1.703a44.344 44.344 0 0 0 1.62-3.748l-3.631-1.375a40.225 40.225 0 0 1-1.478 3.42zM85.366 27.966l-3.61 1.432c.458 1.15.866 2.335 1.211 3.52l3.726-1.09c-.38-1.3-.827-2.6-1.327-3.862zM87.658 35.797l-3.813.739c.236 1.213.416 2.454.54 3.684l3.862-.383a44.243 44.243 0 0 0-.59-4.04zM70.518 8.65l-2.306 3.123a41.015 41.015 0 0 1 2.889 2.35l2.587-2.896a43.355 43.355 0 0 0-3.17-2.576zM67.126 6.38c-1.16-.7-2.37-1.355-3.59-1.947l-1.692 3.496a40.058 40.058 0 0 1 3.275 1.774zM36.421 4.64L35.67.83c-1.332.262-2.667.59-3.967.975l1.101 3.722a41.132 41.132 0 0 1 3.617-.888zM76.604 14.086L73.76 16.73c.84.904 1.65 1.861 2.406 2.843l3.075-2.37-.005-.006a45.122 45.122 0 0 0-2.632-3.11zM81.587 20.555L78.3 22.62l.086.142a40.455 40.455 0 0 1 1.839 3.242l3.461-1.76a43.932 43.932 0 0 0-2.011-3.549zM6.477 30.002a40.191 40.191 0 0 1 1.47-3.422l-3.493-1.696a45.364 45.364 0 0 0-1.613 3.752zM14.152 17.329c.821-.917 1.7-1.81 2.608-2.655l-2.639-2.846a44.56 44.56 0 0 0-2.863 2.91zM19.603 12.272q1.472-1.127 3.059-2.135l-2.076-3.28q-1.737 1.098-3.346 2.335zM9.727 23.308c.641-1.06 1.339-2.1 2.073-3.092l-3.12-2.31a44.081 44.081 0 0 0-2.276 3.392zM29.287 6.748l-1.441-3.604a43.775 43.775 0 0 0-3.718 1.691l1.77 3.455a40.326 40.326 0 0 1 3.389-1.542zM88.46 43.916l-3.882.022a40.606 40.606 0 0 1-.149 3.722l3.868.334c.118-1.348.172-2.721.164-4.078zM5.328 33.55l-3.744-1.03a44.25 44.25 0 0 0-.898 3.982l3.822.68c.218-1.223.494-2.446.82-3.632zM28.598 85.601c1.268.48 2.573.903 3.88 1.265l1.032-3.746a40.435 40.435 0 0 1-3.543-1.151zM.157 40.55a43.86 43.86 0 0 0-.155 4.08l3.88-.031a40.74 40.74 0 0 1 .143-3.722zM14.649 71.671a40.805 40.805 0 0 1-2.4-2.845l-3.082 2.36a44.692 44.692 0 0 0 2.632 3.122zM44.56 84.576l.028 3.885c1.36-.01 2.731-.085 4.078-.22l-.388-3.865a40.29 40.29 0 0 1-3.717.2zM6.84 67.846l3.234-2.15a40.924 40.924 0 0 1-1.8-3.166l-3.459 1.764a45.02 45.02 0 0 0 1.965 3.458zM26.547 80.495a39.714 39.714 0 0 1-3.272-1.783l-2.013 3.323a45.064 45.064 0 0 0 3.586 1.953zM47.543 4.02a41.12 41.12 0 0 1 3.695.48l.678-3.823A45.089 45.089 0 0 0 47.867.15zM40.837 84.431a40.41 40.41 0 0 1-3.693-.485l-.683 3.821c1.338.24 2.698.417 4.047.533zM83.113 54.99l3.743 1.033c.361-1.307.665-2.646.904-3.98l-3.82-.687c-.22 1.217-.499 2.44-.827 3.634zM59.783 2.828a44.515 44.515 0 0 0-3.885-1.259l-1.024 3.747c1.2.326 2.391.713 3.546 1.146zM4.086 48.316l-3.863.392c.138 1.352.339 2.711.6 4.04l3.81-.746a40.16 40.16 0 0 1-.547-3.686zM3.13 60.575l3.605-1.439a39.699 39.699 0 0 1-1.216-3.519l-3.727 1.096a44.341 44.341 0 0 0 1.337 3.862zM17.872 79.755l2.312-3.117a40.47 40.47 0 0 1-2.884-2.355l-2.591 2.891a43.819 43.819 0 0 0 3.163 2.58z"/></svg>