<svg xmlns="http://www.w3.org/2000/svg" viewbox="0 0 109 112.763" width="109" height="112.763"><path fill="none" d="M75.175 78.938h18.794v18.794H75.175zM33.824 33.824h3.953v18.794h-3.953zM3.764 101.484a7.515 7.515 0 1 0 15.03 0v-41.34H3.764z"/><path d="M22.557 101.484a11.146 11.146 0 0 1-.192 1.992l-.03.174a10.713 10.713 0 0 1-.513 1.78c-.029.074-.054.156-.083.23a9.97 9.97 0 0 1-.798 1.596 3.854 3.854 0 0 1-.139.24 12.032 12.032 0 0 1-1.045 1.403c-.029.028-.055.074-.082.101H97.73a7.506 7.506 0 0 0 7.498-7.497V26.309H22.557zm39.459 0H33.824a1.877 1.877 0 0 1 0-3.753h28.192a1.877 1.877 0 1 1 0 3.753zm0-11.278H33.824a1.877 1.877 0 0 1 0-3.753h28.192a1.877 1.877 0 1 1 0 3.753zm0-11.268H33.824a1.881 1.881 0 0 1 0-3.763h28.192a1.881 1.881 0 0 1 0 3.763zm35.715 22.546H71.412V75.175h26.32zM95.85 67.66H33.824a1.881 1.881 0 0 1 0-3.762H95.85a1.881 1.881 0 0 1 0 3.762zM65.778 30.072H95.85a1.876 1.876 0 1 1 0 3.752H65.778a1.876 1.876 0 1 1 0-3.752zm0 11.28H95.85a1.876 1.876 0 1 1 0 3.751H65.778a1.876 1.876 0 1 1 0-3.752zm0 11.266H95.85a1.882 1.882 0 0 1 0 3.763H65.778a1.882 1.882 0 0 1 0-3.763zM30.072 30.072h26.31v26.31h-26.31zM45.103 11.278h37.588v3.752H45.103z" fill="none"/><path d="M22.557 22.557h82.672V3.764H22.557zM41.351 7.516h45.102v11.278H41.351z" fill="none"/><path fill="#d16e2e" d="M37.777 33.824h14.841v18.794H37.777z"/><path d="M56.381 30.072h-26.31v26.31h26.31zm-22.557 3.752h18.794v18.794H33.824zM65.778 33.824H95.85a1.876 1.876 0 1 0 0-3.752H65.778a1.876 1.876 0 1 0 0 3.752zM65.778 45.103H95.85a1.876 1.876 0 1 0 0-3.752H65.778a1.876 1.876 0 1 0 0 3.752zM65.778 56.381H95.85a1.882 1.882 0 0 0 0-3.763H65.778a1.882 1.882 0 0 0 0 3.763zM95.85 63.897H33.824a1.881 1.881 0 0 0 0 3.762H95.85a1.881 1.881 0 0 0 0-3.762zM62.016 75.175H33.824a1.881 1.881 0 0 0 0 3.763h28.192a1.881 1.881 0 0 0 0-3.763zM62.016 86.453H33.824a1.877 1.877 0 0 0 0 3.753h28.192a1.877 1.877 0 1 0 0-3.753zM62.016 97.731H33.824a1.877 1.877 0 0 0 0 3.753h28.192a1.877 1.877 0 1 0 0-3.753zM71.412 101.484h26.32V75.175h-26.32zm3.763-22.546h18.794V97.73H75.175z" fill="#404040"/><path d="M108.982 24.345V0H18.794v56.381H0v45.103a11.286 11.286 0 0 0 11.278 11.279h86.453a11.271 11.271 0 0 0 11.25-11.26V24.52a.285.285 0 0 0 .019-.094.292.292 0 0 0-.018-.082zm-90.188 77.14a7.515 7.515 0 1 1-15.03 0V60.143h15.03zm86.435.018A7.506 7.506 0 0 1 97.73 109H19.675c.027-.027.053-.073.082-.1a12.032 12.032 0 0 0 1.045-1.405c.047-.073.094-.156.14-.239a9.97 9.97 0 0 0 .797-1.596c.03-.074.054-.156.083-.23a10.713 10.713 0 0 0 .514-1.78l.029-.174a11.146 11.146 0 0 0 .192-1.992V26.31h82.672zm0-78.946H22.557V3.764h82.672z" fill="#404040"/><path d="M86.453 7.516H41.351v11.278h45.102zm-3.762 7.514H45.103v-3.752h37.588z" fill="#404040"/></svg>