<svg xmlns="http://www.w3.org/2000/svg" width="44" height="44" viewBox="0 0 44 44"><path d="M44 20.7v2.5c0 .1-.1.2-.1.4-.1.8-.2 1.6-.3 2.3-.3 1.9-.9 3.7-1.7 5.4-1.7 3.5-4.2 6.5-7.4 8.7-2 1.4-4.1 2.4-6.4 3-1.4.4-2.9.7-4.3.8-.1 0-.3 0-.4.1h-2.5c-.1 0-.2-.1-.4-.1-1.3-.1-2.6-.3-3.9-.6-1.7-.4-3.4-1.1-4.9-1.9-4.6-2.3-8-6.2-10-10.8-.6-1.4-1-2.8-1.3-4.3C.2 25.1.1 24 0 22.9c0-.9 0-1.7.1-2.6.1-1.1.2-2.1.5-3.1.4-1.9 1.1-3.8 2.1-5.6C4 9 5.9 6.7 8.2 4.9c1.4-1.1 2.8-2 4.4-2.8 1.5-.7 3.1-1.3 4.8-1.6 1.1-.2 2.3-.4 3.4-.5 1-.1 1.9 0 2.9 0 1 .1 2 .2 3 .4 1.6.3 3.1.8 4.6 1.5C34.6 3.6 37.5 6 39.7 9c1.3 1.7 2.3 3.7 3 5.7.6 1.8 1 3.7 1.2 5.6 0 .1.1.3.1.4zm-12.4-5.6c1-.6 1.7-1.6 2.1-2.7-.1 0-.1 0-.2.1-.9.5-1.8.9-2.8 1.1-.1 0-.2 0-.3-.1-1.6-1.5-3.4-1.9-5.4-1.2-2.1.7-3.6 3-3.3 5.3 0 .2 0 .4.1.6-4.2-.3-7.7-2.1-10.4-5.3-.6 1.1-.8 2.4-.6 3.7.3 1.3 1 2.3 2 3.1-.8 0-1.5-.2-2.2-.6 0 1.2.4 2.3 1.1 3.2.7.9 1.7 1.5 2.8 1.8-.7.2-1.4.2-2.1.1.8 2.2 2.4 3.3 4.7 3.5-.5.4-1.1.8-1.7 1.1-1.7.9-3.7 1.2-5.6 1v.1l.1.1c1.8 1.1 3.8 1.8 5.9 2 2.2.3 4.5 0 6.6-.8 2.3-.8 4.3-2.2 5.9-4.1 2.3-2.9 3.5-6.1 3.5-9.8 0-.2.1-.3.2-.4.8-.6 1.5-1.4 2.1-2.2 0-.1.1-.1.1-.2-.8.3-1.7.5-2.6.6z" fill="#ef6e2d"/></svg>