<svg xmlns="http://www.w3.org/2000/svg" width="44" height="44" viewBox="0 0 44 44"><path d="M23.3 44h-2.5c-.1 0-.2-.1-.3-.1-1-.1-2-.3-3-.4-1.7-.3-3.4-.9-4.9-1.7-5.2-2.5-9.2-7-11.2-12.5-.6-1.8-1-3.7-1.2-5.5 0-.1 0-.3-.1-.4v-2.7c0-.1.1-.2.1-.3 0-2.3.5-4.4 1.3-6.4C3.7 8.3 8.2 3.8 13.9 1.5 15.2 1 16.4.6 17.8.4 19 .2 20.2 0 21.4 0c.8 0 1.5 0 2.3.1 1.2.1 2.3.3 3.5.5 2 .5 3.9 1.2 5.7 2.3 3.3 1.9 6 4.5 7.9 7.7C42.9 14.1 44 18 44 22.1c0 .5 0 1-.1 1.5-.1.9-.2 1.9-.4 2.8-.3 1.7-.9 3.4-1.6 4.9-1.7 3.5-4.2 6.5-7.5 8.8-2 1.4-4.1 2.4-6.4 3-1.4.4-2.9.7-4.3.8-.2 0-.3.1-.4.1zm-7.2-21.2h2.2c.3 0 .3 0 .3.3v12.2c0 .3 0 .3.3.3h4.7c.3 0 .3 0 .3-.3V23c0-.2.1-.3.3-.3h3.1c.1 0 .2 0 .2-.2.1-1.4.3-2.7.4-4.1 0-.2 0-.3-.2-.3h-3.6c-.2 0-.2-.1-.2-.2v-2.4c0-.8.4-1.2 1.2-1.2h2.5c.2 0 .3-.1.3-.3v-3.8c0-.2-.1-.3-.3-.3h-3c-.8 0-1.7 0-2.5.2-1.3.4-2.3 1.1-2.9 2.3-.5.9-.7 1.9-.7 2.9v2.6c0 .2-.1.3-.3.2h-2c-.2 0-.2.1-.2.3v4l.1.4z" fill="#ef6e2d"/></svg>