<svg xmlns="http://www.w3.org/2000/svg" width="44" height="44" viewBox="0 0 44 44"><g fill="#ef6e2d"><path d="M23.3 44h-2.5c-.1 0-.2-.1-.3-.1-.7-.1-1.4-.2-2.2-.3-1.7-.3-3.4-.8-5-1.5C8.5 40 4.6 36.3 2.2 31.6c-.8-1.6-1.4-3.3-1.7-5-.2-1.1-.4-2.3-.5-3.4v-3C.2 18.1.7 16 1.5 14c1.4-3.6 3.7-6.8 6.7-9.2 1.7-1.4 3.6-2.5 5.7-3.3C15.1 1 16.4.6 17.8.4c1-.2 2-.3 3.1-.4.9 0 1.9 0 2.8.1 1 .1 2 .2 3 .4 1.6.3 3.1.8 4.6 1.5 3.3 1.6 6.2 4 8.4 7 1.3 1.7 2.3 3.7 3 5.7.6 1.8 1 3.7 1.2 5.6 0 .2 0 .3.1.5v2.5c0 .1-.1.2-.1.4-.1.9-.2 1.9-.4 2.8-.3 1.7-.9 3.4-1.7 5-1.7 3.5-4.2 6.5-7.5 8.7-2 1.4-4.1 2.4-6.4 3-1.4.4-2.9.7-4.3.8-.1-.1-.2 0-.3 0zm10.4-22.2v-10c0-.5-.2-1-.6-1.4-.4-.3-.8-.4-1.3-.4H11.9c-1 0-1.7.7-1.7 1.8v20.1c0 .2 0 .4.1.6.3.8.9 1.2 1.7 1.2h19.9c.2 0 .4 0 .6-.1.8-.3 1.2-.9 1.2-1.7V21.8z"/><path d="M22.9 20.5l.2-.2c.7-.9 1.6-1.4 2.8-1.4 1.2 0 2.2.2 3 1.1.7.7 1 1.5 1.1 2.5.1.5.1.9.1 1.4v5.7c0 .3 0 .3-.3.3h-2.9c-.3 0-.3 0-.3-.3v-5.3c0-.5-.1-1-.2-1.5-.3-.8-1.1-1.1-1.9-1-.9.1-1.6 1.1-1.6 1.8v6c0 .3 0 .3-.3.3h-3c-.2 0-.3-.1-.3-.3V19.4c0-.2.1-.2.2-.2h3.1c.2 0 .2.1.2.2v.9c0 .1 0 .1.1.2zm-9.1 4v-5.1c0-.2 0-.3.3-.3h3.1c.2 0 .2.1.2.2v10.2c0 .2-.1.3-.2.3h-3.1c-.2 0-.2-.1-.2-.3-.1-1.6-.2-3.3-.1-5zM15.5 14c.9 0 1.5.4 1.9 1.1.4.9-.1 2-1 2.4-.1.1-.3.1-.5.1-.7.1-1.3 0-1.8-.4-.5-.5-.8-1.2-.6-1.9.2-.8.8-1.2 1.6-1.3h.4z"/></g></svg>